<svg width="493" height="170" viewBox="0 0 493 170" fill="none" xmlns="http://www.w3.org/2000/svg">
<path d="M4.96023 17.2986C4.24811 17.2986 3.60795 17.1623 3.03977 16.8895C2.47538 16.613 2.02462 16.2342 1.6875 15.7532C1.35038 15.2721 1.17045 14.7229 1.14773 14.1054H2.85227C2.89394 14.6054 3.11553 15.0164 3.51705 15.3384C3.91856 15.6604 4.39962 15.8213 4.96023 15.8213C5.4072 15.8213 5.80303 15.7191 6.14773 15.5145C6.49621 15.3062 6.76894 15.0202 6.96591 14.6566C7.16667 14.2929 7.26705 13.8782 7.26705 13.4123C7.26705 12.9388 7.16477 12.5164 6.96023 12.1452C6.75568 11.774 6.47349 11.4823 6.11364 11.2702C5.75758 11.0581 5.34848 10.9501 4.88636 10.9463C4.53409 10.9463 4.17992 11.007 3.82386 11.1282C3.4678 11.2494 3.17992 11.4085 2.96023 11.6054L1.35227 11.3668L2.00568 5.50316H8.40341V7.00884H3.46591L3.09659 10.2645H3.16477C3.39205 10.0448 3.69318 9.86112 4.06818 9.71339C4.44697 9.56566 4.85227 9.4918 5.28409 9.4918C5.99242 9.4918 6.62311 9.66036 7.17614 9.99748C7.73295 10.3346 8.17045 10.7948 8.48864 11.3782C8.81061 11.9577 8.9697 12.6244 8.96591 13.3782C8.9697 14.132 8.79924 14.8043 8.45455 15.3952C8.11364 15.9861 7.64015 16.452 7.03409 16.7929C6.43182 17.1301 5.74053 17.2986 4.96023 17.2986ZM21.8381 10.5429L20.2983 10.8157C20.2339 10.6187 20.1316 10.4312 19.9915 10.2532C19.8551 10.0751 19.6695 9.9293 19.4347 9.81566C19.1998 9.70203 18.9063 9.64521 18.554 9.64521C18.0729 9.64521 17.6714 9.75316 17.3494 9.96907C17.0275 10.1812 16.8665 10.4558 16.8665 10.7929C16.8665 11.0846 16.9744 11.3195 17.1903 11.4975C17.4063 11.6755 17.7547 11.8213 18.2358 11.935L19.6222 12.2532C20.4252 12.4388 21.0237 12.7248 21.4176 13.1111C21.8116 13.4975 22.0085 13.9994 22.0085 14.6168C22.0085 15.1395 21.857 15.6054 21.554 16.0145C21.2547 16.4198 20.8362 16.738 20.2983 16.9691C19.7642 17.2001 19.1449 17.3157 18.4403 17.3157C17.4631 17.3157 16.6657 17.1073 16.0483 16.6907C15.4309 16.2702 15.0521 15.6736 14.9119 14.9009L16.554 14.6509C16.6563 15.0789 16.8665 15.4028 17.1847 15.6225C17.5028 15.8384 17.9176 15.9463 18.429 15.9463C18.9858 15.9463 19.4309 15.8308 19.7642 15.5998C20.0975 15.3649 20.2642 15.0789 20.2642 14.7418C20.2642 14.4691 20.1619 14.2399 19.9574 14.0543C19.7566 13.8687 19.4479 13.7285 19.0312 13.6338L17.554 13.31C16.7396 13.1244 16.1373 12.8289 15.7472 12.4236C15.3608 12.0183 15.1676 11.5051 15.1676 10.8838C15.1676 10.3687 15.3116 9.91794 15.5994 9.53157C15.8873 9.14521 16.285 8.84407 16.7926 8.62816C17.3002 8.40847 17.8816 8.29862 18.5369 8.29862C19.4801 8.29862 20.2225 8.50316 20.7642 8.91225C21.3059 9.31756 21.6638 9.86112 21.8381 10.5429ZM27.9503 8.41225V9.77589H23.1832V8.41225H27.9503ZM24.4616 6.32134H26.1605V14.577C26.1605 14.9066 26.2098 15.1547 26.3082 15.3213C26.4067 15.4842 26.5336 15.596 26.6889 15.6566C26.848 15.7134 27.0204 15.7418 27.206 15.7418C27.3423 15.7418 27.4616 15.7323 27.5639 15.7134C27.6662 15.6945 27.7457 15.6793 27.8026 15.6679L28.1094 17.0713C28.0109 17.1092 27.8707 17.1471 27.6889 17.185C27.5071 17.2266 27.2798 17.2494 27.0071 17.2532C26.5601 17.2607 26.1435 17.1812 25.7571 17.0145C25.3707 16.8479 25.0582 16.5903 24.8196 16.2418C24.581 15.8933 24.4616 15.4558 24.4616 14.9293V6.32134ZM32.3693 17.3327C31.8163 17.3327 31.3163 17.2304 30.8693 17.0259C30.4223 16.8176 30.0682 16.5164 29.8068 16.1225C29.5492 15.7285 29.4205 15.2456 29.4205 14.6736C29.4205 14.1812 29.5152 13.7759 29.7045 13.4577C29.8939 13.1395 30.1496 12.8876 30.4716 12.702C30.7936 12.5164 31.1534 12.3763 31.5511 12.2816C31.9489 12.1869 32.3542 12.1149 32.767 12.0657C33.2898 12.0051 33.714 11.9558 34.0398 11.9179C34.3655 11.8763 34.6023 11.81 34.75 11.7191C34.8977 11.6282 34.9716 11.4804 34.9716 11.2759V11.2361C34.9716 10.7399 34.8314 10.3554 34.5511 10.0827C34.2746 9.80998 33.8617 9.67362 33.3125 9.67362C32.7405 9.67362 32.2898 9.80051 31.9602 10.0543C31.6345 10.3043 31.4091 10.5827 31.2841 10.8895L29.6875 10.5259C29.8769 9.99559 30.1534 9.56756 30.517 9.2418C30.8845 8.91225 31.3068 8.67362 31.7841 8.52589C32.2614 8.37437 32.7633 8.29862 33.2898 8.29862C33.6383 8.29862 34.0076 8.34028 34.3977 8.42362C34.7917 8.50316 35.1591 8.65089 35.5 8.8668C35.8447 9.08271 36.1269 9.39142 36.3466 9.79294C36.5663 10.1907 36.6761 10.7077 36.6761 11.3441V17.1395H35.017V15.9463H34.9489C34.839 16.166 34.6742 16.382 34.4545 16.5941C34.2348 16.8062 33.9527 16.9823 33.608 17.1225C33.2633 17.2626 32.8504 17.3327 32.3693 17.3327ZM32.7386 15.9691C33.2083 15.9691 33.6098 15.8763 33.9432 15.6907C34.2803 15.5051 34.536 15.2626 34.7102 14.9634C34.8883 14.6604 34.9773 14.3365 34.9773 13.9918V12.8668C34.9167 12.9274 34.7992 12.9842 34.625 13.0373C34.4545 13.0865 34.2595 13.1301 34.0398 13.1679C33.8201 13.202 33.6061 13.2342 33.3977 13.2645C33.1894 13.291 33.0152 13.3138 32.875 13.3327C32.5455 13.3744 32.2443 13.4445 31.9716 13.5429C31.7027 13.6414 31.4867 13.7835 31.3239 13.9691C31.1648 14.1509 31.0852 14.3933 31.0852 14.6963C31.0852 15.1168 31.2405 15.435 31.5511 15.6509C31.8617 15.863 32.2576 15.9691 32.7386 15.9691ZM38.9389 17.1395V8.41225H40.581V9.79862H40.6719C40.831 9.32892 41.1113 8.9596 41.5128 8.69066C41.9181 8.41794 42.3764 8.28157 42.8878 8.28157C42.9938 8.28157 43.1188 8.28536 43.2628 8.29294C43.4105 8.30051 43.526 8.30998 43.6094 8.32134V9.94634C43.5412 9.92741 43.42 9.90657 43.2457 9.88384C43.0715 9.85733 42.8973 9.84407 42.723 9.84407C42.3215 9.84407 41.9635 9.9293 41.6491 10.0998C41.3385 10.2664 41.0923 10.4994 40.9105 10.7986C40.7287 11.0941 40.6378 11.4312 40.6378 11.81V17.1395H38.9389ZM51.6193 10.5429L50.0795 10.8157C50.0152 10.6187 49.9129 10.4312 49.7727 10.2532C49.6364 10.0751 49.4508 9.9293 49.2159 9.81566C48.9811 9.70203 48.6875 9.64521 48.3352 9.64521C47.8542 9.64521 47.4527 9.75316 47.1307 9.96907C46.8087 10.1812 46.6477 10.4558 46.6477 10.7929C46.6477 11.0846 46.7557 11.3195 46.9716 11.4975C47.1875 11.6755 47.536 11.8213 48.017 11.935L49.4034 12.2532C50.2064 12.4388 50.8049 12.7248 51.1989 13.1111C51.5928 13.4975 51.7898 13.9994 51.7898 14.6168C51.7898 15.1395 51.6383 15.6054 51.3352 16.0145C51.036 16.4198 50.6174 16.738 50.0795 16.9691C49.5455 17.2001 48.9261 17.3157 48.2216 17.3157C47.2443 17.3157 46.447 17.1073 45.8295 16.6907C45.2121 16.2702 44.8333 15.6736 44.6932 14.9009L46.3352 14.6509C46.4375 15.0789 46.6477 15.4028 46.9659 15.6225C47.2841 15.8384 47.6989 15.9463 48.2102 15.9463C48.767 15.9463 49.2121 15.8308 49.5455 15.5998C49.8788 15.3649 50.0455 15.0789 50.0455 14.7418C50.0455 14.4691 49.9432 14.2399 49.7386 14.0543C49.5379 13.8687 49.2292 13.7285 48.8125 13.6338L47.3352 13.31C46.5208 13.1244 45.9186 12.8289 45.5284 12.4236C45.142 12.0183 44.9489 11.5051 44.9489 10.8838C44.9489 10.3687 45.0928 9.91794 45.3807 9.53157C45.6686 9.14521 46.0663 8.84407 46.5739 8.62816C47.0814 8.40847 47.6629 8.29862 48.3182 8.29862C49.2614 8.29862 50.0038 8.50316 50.5455 8.91225C51.0871 9.31756 51.4451 9.86112 51.6193 10.5429Z" fill="#4D4D4D"/>
<path d="M4.96023 17.2986C4.24811 17.2986 3.60795 17.1623 3.03977 16.8895C2.47538 16.613 2.02462 16.2342 1.6875 15.7532C1.35038 15.2721 1.17045 14.7229 1.14773 14.1054H2.85227C2.89394 14.6054 3.11553 15.0164 3.51705 15.3384C3.91856 15.6604 4.39962 15.8213 4.96023 15.8213C5.4072 15.8213 5.80303 15.7191 6.14773 15.5145C6.49621 15.3062 6.76894 15.0202 6.96591 14.6566C7.16667 14.2929 7.26705 13.8782 7.26705 13.4123C7.26705 12.9388 7.16477 12.5164 6.96023 12.1452C6.75568 11.774 6.47349 11.4823 6.11364 11.2702C5.75758 11.0581 5.34848 10.9501 4.88636 10.9463C4.53409 10.9463 4.17992 11.007 3.82386 11.1282C3.4678 11.2494 3.17992 11.4085 2.96023 11.6054L1.35227 11.3668L2.00568 5.50316H8.40341V7.00884H3.46591L3.09659 10.2645H3.16477C3.39205 10.0448 3.69318 9.86112 4.06818 9.71339C4.44697 9.56566 4.85227 9.4918 5.28409 9.4918C5.99242 9.4918 6.62311 9.66036 7.17614 9.99748C7.73295 10.3346 8.17045 10.7948 8.48864 11.3782C8.81061 11.9577 8.9697 12.6244 8.96591 13.3782C8.9697 14.132 8.79924 14.8043 8.45455 15.3952C8.11364 15.9861 7.64015 16.452 7.03409 16.7929C6.43182 17.1301 5.74053 17.2986 4.96023 17.2986ZM21.8381 10.5429L20.2983 10.8157C20.2339 10.6187 20.1316 10.4312 19.9915 10.2532C19.8551 10.0751 19.6695 9.9293 19.4347 9.81566C19.1998 9.70203 18.9063 9.64521 18.554 9.64521C18.0729 9.64521 17.6714 9.75316 17.3494 9.96907C17.0275 10.1812 16.8665 10.4558 16.8665 10.7929C16.8665 11.0846 16.9744 11.3195 17.1903 11.4975C17.4063 11.6755 17.7547 11.8213 18.2358 11.935L19.6222 12.2532C20.4252 12.4388 21.0237 12.7248 21.4176 13.1111C21.8116 13.4975 22.0085 13.9994 22.0085 14.6168C22.0085 15.1395 21.857 15.6054 21.554 16.0145C21.2547 16.4198 20.8362 16.738 20.2983 16.9691C19.7642 17.2001 19.1449 17.3157 18.4403 17.3157C17.4631 17.3157 16.6657 17.1073 16.0483 16.6907C15.4309 16.2702 15.0521 15.6736 14.9119 14.9009L16.554 14.6509C16.6563 15.0789 16.8665 15.4028 17.1847 15.6225C17.5028 15.8384 17.9176 15.9463 18.429 15.9463C18.9858 15.9463 19.4309 15.8308 19.7642 15.5998C20.0975 15.3649 20.2642 15.0789 20.2642 14.7418C20.2642 14.4691 20.1619 14.2399 19.9574 14.0543C19.7566 13.8687 19.4479 13.7285 19.0312 13.6338L17.554 13.31C16.7396 13.1244 16.1373 12.8289 15.7472 12.4236C15.3608 12.0183 15.1676 11.5051 15.1676 10.8838C15.1676 10.3687 15.3116 9.91794 15.5994 9.53157C15.8873 9.14521 16.285 8.84407 16.7926 8.62816C17.3002 8.40847 17.8816 8.29862 18.5369 8.29862C19.4801 8.29862 20.2225 8.50316 20.7642 8.91225C21.3059 9.31756 21.6638 9.86112 21.8381 10.5429ZM27.9503 8.41225V9.77589H23.1832V8.41225H27.9503ZM24.4616 6.32134H26.1605V14.577C26.1605 14.9066 26.2098 15.1547 26.3082 15.3213C26.4067 15.4842 26.5336 15.596 26.6889 15.6566C26.848 15.7134 27.0204 15.7418 27.206 15.7418C27.3423 15.7418 27.4616 15.7323 27.5639 15.7134C27.6662 15.6945 27.7457 15.6793 27.8026 15.6679L28.1094 17.0713C28.0109 17.1092 27.8707 17.1471 27.6889 17.185C27.5071 17.2266 27.2798 17.2494 27.0071 17.2532C26.5601 17.2607 26.1435 17.1812 25.7571 17.0145C25.3707 16.8479 25.0582 16.5903 24.8196 16.2418C24.581 15.8933 24.4616 15.4558 24.4616 14.9293V6.32134ZM32.3693 17.3327C31.8163 17.3327 31.3163 17.2304 30.8693 17.0259C30.4223 16.8176 30.0682 16.5164 29.8068 16.1225C29.5492 15.7285 29.4205 15.2456 29.4205 14.6736C29.4205 14.1812 29.5152 13.7759 29.7045 13.4577C29.8939 13.1395 30.1496 12.8876 30.4716 12.702C30.7936 12.5164 31.1534 12.3763 31.5511 12.2816C31.9489 12.1869 32.3542 12.1149 32.767 12.0657C33.2898 12.0051 33.714 11.9558 34.0398 11.9179C34.3655 11.8763 34.6023 11.81 34.75 11.7191C34.8977 11.6282 34.9716 11.4804 34.9716 11.2759V11.2361C34.9716 10.7399 34.8314 10.3554 34.5511 10.0827C34.2746 9.80998 33.8617 9.67362 33.3125 9.67362C32.7405 9.67362 32.2898 9.80051 31.9602 10.0543C31.6345 10.3043 31.4091 10.5827 31.2841 10.8895L29.6875 10.5259C29.8769 9.99559 30.1534 9.56756 30.517 9.2418C30.8845 8.91225 31.3068 8.67362 31.7841 8.52589C32.2614 8.37437 32.7633 8.29862 33.2898 8.29862C33.6383 8.29862 34.0076 8.34028 34.3977 8.42362C34.7917 8.50316 35.1591 8.65089 35.5 8.8668C35.8447 9.08271 36.1269 9.39142 36.3466 9.79294C36.5663 10.1907 36.6761 10.7077 36.6761 11.3441V17.1395H35.017V15.9463H34.9489C34.839 16.166 34.6742 16.382 34.4545 16.5941C34.2348 16.8062 33.9527 16.9823 33.608 17.1225C33.2633 17.2626 32.8504 17.3327 32.3693 17.3327ZM32.7386 15.9691C33.2083 15.9691 33.6098 15.8763 33.9432 15.6907C34.2803 15.5051 34.536 15.2626 34.7102 14.9634C34.8883 14.6604 34.9773 14.3365 34.9773 13.9918V12.8668C34.9167 12.9274 34.7992 12.9842 34.625 13.0373C34.4545 13.0865 34.2595 13.1301 34.0398 13.1679C33.8201 13.202 33.6061 13.2342 33.3977 13.2645C33.1894 13.291 33.0152 13.3138 32.875 13.3327C32.5455 13.3744 32.2443 13.4445 31.9716 13.5429C31.7027 13.6414 31.4867 13.7835 31.3239 13.9691C31.1648 14.1509 31.0852 14.3933 31.0852 14.6963C31.0852 15.1168 31.2405 15.435 31.5511 15.6509C31.8617 15.863 32.2576 15.9691 32.7386 15.9691ZM38.9389 17.1395V8.41225H40.581V9.79862H40.6719C40.831 9.32892 41.1113 8.9596 41.5128 8.69066C41.9181 8.41794 42.3764 8.28157 42.8878 8.28157C42.9938 8.28157 43.1188 8.28536 43.2628 8.29294C43.4105 8.30051 43.526 8.30998 43.6094 8.32134V9.94634C43.5412 9.92741 43.42 9.90657 43.2457 9.88384C43.0715 9.85733 42.8973 9.84407 42.723 9.84407C42.3215 9.84407 41.9635 9.9293 41.6491 10.0998C41.3385 10.2664 41.0923 10.4994 40.9105 10.7986C40.7287 11.0941 40.6378 11.4312 40.6378 11.81V17.1395H38.9389ZM51.6193 10.5429L50.0795 10.8157C50.0152 10.6187 49.9129 10.4312 49.7727 10.2532C49.6364 10.0751 49.4508 9.9293 49.2159 9.81566C48.9811 9.70203 48.6875 9.64521 48.3352 9.64521C47.8542 9.64521 47.4527 9.75316 47.1307 9.96907C46.8087 10.1812 46.6477 10.4558 46.6477 10.7929C46.6477 11.0846 46.7557 11.3195 46.9716 11.4975C47.1875 11.6755 47.536 11.8213 48.017 11.935L49.4034 12.2532C50.2064 12.4388 50.8049 12.7248 51.1989 13.1111C51.5928 13.4975 51.7898 13.9994 51.7898 14.6168C51.7898 15.1395 51.6383 15.6054 51.3352 16.0145C51.036 16.4198 50.6174 16.738 50.0795 16.9691C49.5455 17.2001 48.9261 17.3157 48.2216 17.3157C47.2443 17.3157 46.447 17.1073 45.8295 16.6907C45.2121 16.2702 44.8333 15.6736 44.6932 14.9009L46.3352 14.6509C46.4375 15.0789 46.6477 15.4028 46.9659 15.6225C47.2841 15.8384 47.6989 15.9463 48.2102 15.9463C48.767 15.9463 49.2121 15.8308 49.5455 15.5998C49.8788 15.3649 50.0455 15.0789 50.0455 14.7418C50.0455 14.4691 49.9432 14.2399 49.7386 14.0543C49.5379 13.8687 49.2292 13.7285 48.8125 13.6338L47.3352 13.31C46.5208 13.1244 45.9186 12.8289 45.5284 12.4236C45.142 12.0183 44.9489 11.5051 44.9489 10.8838C44.9489 10.3687 45.0928 9.91794 45.3807 9.53157C45.6686 9.14521 46.0663 8.84407 46.5739 8.62816C47.0814 8.40847 47.6629 8.29862 48.3182 8.29862C49.2614 8.29862 50.0038 8.50316 50.5455 8.91225C51.0871 9.31756 51.4451 9.86112 51.6193 10.5429Z" fill="#4D4D4D"/>
<path d="M457.065 5.50316V17.1395H455.304V7.26453H455.236L452.452 9.08271V7.40089L455.355 5.50316H457.065ZM464.264 17.3327C463.366 17.3289 462.599 17.0922 461.963 16.6225C461.327 16.1528 460.84 15.4691 460.503 14.5713C460.166 13.6736 459.997 12.5922 459.997 11.327C459.997 10.0657 460.166 8.98801 460.503 8.09407C460.844 7.20013 461.332 6.51831 461.969 6.04862C462.609 5.57892 463.374 5.34407 464.264 5.34407C465.154 5.34407 465.918 5.58081 466.554 6.0543C467.19 6.524 467.677 7.20581 468.014 8.09975C468.355 8.98991 468.526 10.0657 468.526 11.327C468.526 12.596 468.357 13.6793 468.02 14.577C467.683 15.471 467.196 16.1547 466.56 16.6282C465.923 17.0979 465.158 17.3327 464.264 17.3327ZM464.264 15.8157C465.052 15.8157 465.668 15.4312 466.111 14.6623C466.558 13.8933 466.781 12.7816 466.781 11.327C466.781 10.3611 466.679 9.54483 466.474 8.87816C466.274 8.20771 465.984 7.70013 465.605 7.35544C465.23 7.00695 464.783 6.83271 464.264 6.83271C463.48 6.83271 462.865 7.21907 462.418 7.9918C461.971 8.76453 461.745 9.87627 461.741 11.327C461.741 12.2967 461.842 13.1168 462.043 13.7873C462.247 14.4539 462.537 14.9596 462.912 15.3043C463.287 15.6452 463.738 15.8157 464.264 15.8157ZM474.592 17.3327C473.695 17.3289 472.928 17.0922 472.291 16.6225C471.655 16.1528 471.168 15.4691 470.831 14.5713C470.494 13.6736 470.325 12.5922 470.325 11.327C470.325 10.0657 470.494 8.98801 470.831 8.09407C471.172 7.20013 471.661 6.51831 472.297 6.04862C472.937 5.57892 473.702 5.34407 474.592 5.34407C475.482 5.34407 476.246 5.58081 476.882 6.0543C477.518 6.524 478.005 7.20581 478.342 8.09975C478.683 8.98991 478.854 10.0657 478.854 11.327C478.854 12.596 478.685 13.6793 478.348 14.577C478.011 15.471 477.524 16.1547 476.888 16.6282C476.251 17.0979 475.486 17.3327 474.592 17.3327ZM474.592 15.8157C475.38 15.8157 475.996 15.4312 476.439 14.6623C476.886 13.8933 477.109 12.7816 477.109 11.327C477.109 10.3611 477.007 9.54483 476.803 8.87816C476.602 8.20771 476.312 7.70013 475.933 7.35544C475.558 7.00695 475.111 6.83271 474.592 6.83271C473.808 6.83271 473.193 7.21907 472.746 7.9918C472.299 8.76453 472.073 9.87627 472.07 11.327C472.07 12.2967 472.17 13.1168 472.371 13.7873C472.575 14.4539 472.865 14.9596 473.24 15.3043C473.615 15.6452 474.066 15.8157 474.592 15.8157ZM486.943 14.9577V14.3441C486.943 13.9047 487.034 13.5032 487.216 13.1395C487.402 12.7721 487.67 12.4785 488.023 12.2588C488.379 12.0354 488.809 11.9236 489.312 11.9236C489.828 11.9236 490.259 12.0335 490.608 12.2532C490.956 12.4729 491.22 12.7664 491.398 13.1338C491.58 13.5013 491.67 13.9047 491.67 14.3441V14.9577C491.67 15.3971 491.58 15.8005 491.398 16.1679C491.216 16.5316 490.949 16.8251 490.597 17.0486C490.248 17.2683 489.82 17.3782 489.312 17.3782C488.801 17.3782 488.369 17.2683 488.017 17.0486C487.665 16.8251 487.398 16.5316 487.216 16.1679C487.034 15.8005 486.943 15.3971 486.943 14.9577ZM488.267 14.3441V14.9577C488.267 15.2835 488.345 15.5789 488.5 15.8441C488.655 16.1092 488.926 16.2418 489.312 16.2418C489.695 16.2418 489.962 16.1092 490.114 15.8441C490.265 15.5789 490.341 15.2835 490.341 14.9577V14.3441C490.341 14.0183 490.267 13.7229 490.119 13.4577C489.975 13.1926 489.706 13.06 489.312 13.06C488.934 13.06 488.665 13.1926 488.506 13.4577C488.347 13.7229 488.267 14.0183 488.267 14.3441ZM481.091 8.29862V7.68498C481.091 7.24559 481.182 6.84218 481.364 6.47475C481.549 6.10733 481.818 5.81377 482.17 5.59407C482.527 5.37437 482.956 5.26453 483.46 5.26453C483.975 5.26453 484.407 5.37437 484.756 5.59407C485.104 5.81377 485.367 6.10733 485.545 6.47475C485.723 6.84218 485.812 7.24559 485.812 7.68498V8.29862C485.812 8.73801 485.722 9.14142 485.54 9.50884C485.362 9.87248 485.097 10.166 484.744 10.3895C484.396 10.6092 483.968 10.7191 483.46 10.7191C482.945 10.7191 482.511 10.6092 482.159 10.3895C481.811 10.166 481.545 9.87248 481.364 9.50884C481.182 9.14142 481.091 8.73801 481.091 8.29862ZM482.42 7.68498V8.29862C482.42 8.62437 482.496 8.91983 482.648 9.18498C482.803 9.45013 483.074 9.58271 483.46 9.58271C483.839 9.58271 484.104 9.45013 484.256 9.18498C484.411 8.91983 484.489 8.62437 484.489 8.29862V7.68498C484.489 7.35922 484.415 7.06377 484.267 6.79862C484.119 6.53347 483.85 6.40089 483.46 6.40089C483.081 6.40089 482.813 6.53347 482.653 6.79862C482.498 7.06377 482.42 7.35922 482.42 7.68498ZM481.631 17.1395L489.631 5.50316H490.989L482.989 17.1395H481.631Z" fill="#4D4D4D"/>
<path d="M474.592 53.1467C473.695 53.1429 472.928 52.9061 472.291 52.4364C471.655 51.9667 471.168 51.283 470.831 50.3853C470.494 49.4876 470.325 48.4061 470.325 47.141C470.325 45.8796 470.494 44.802 470.831 43.908C471.172 43.0141 471.661 42.3323 472.297 41.8626C472.937 41.3929 473.702 41.158 474.592 41.158C475.482 41.158 476.246 41.3948 476.882 41.8683C477.518 42.338 478.005 43.0198 478.342 43.9137C478.683 44.8039 478.854 45.8796 478.854 47.141C478.854 48.4099 478.685 49.4933 478.348 50.391C478.011 51.2849 477.524 51.9686 476.888 52.4421C476.251 52.9118 475.486 53.1467 474.592 53.1467ZM474.592 51.6296C475.38 51.6296 475.996 51.2452 476.439 50.4762C476.886 49.7073 477.109 48.5955 477.109 47.141C477.109 46.1751 477.007 45.3588 476.803 44.6921C476.602 44.0217 476.312 43.5141 475.933 43.1694C475.558 42.8209 475.111 42.6467 474.592 42.6467C473.808 42.6467 473.193 43.033 472.746 43.8058C472.299 44.5785 472.073 45.6902 472.07 47.141C472.07 48.1107 472.17 48.9308 472.371 49.6012C472.575 50.2679 472.865 50.7736 473.24 51.1183C473.615 51.4592 474.066 51.6296 474.592 51.6296ZM486.943 50.7717V50.158C486.943 49.7186 487.034 49.3171 487.216 48.9535C487.402 48.5861 487.67 48.2925 488.023 48.0728C488.379 47.8493 488.809 47.7376 489.312 47.7376C489.828 47.7376 490.259 47.8474 490.608 48.0671C490.956 48.2868 491.22 48.5804 491.398 48.9478C491.58 49.3152 491.67 49.7186 491.67 50.158V50.7717C491.67 51.2111 491.58 51.6145 491.398 51.9819C491.216 52.3455 490.949 52.6391 490.597 52.8626C490.248 53.0823 489.82 53.1921 489.312 53.1921C488.801 53.1921 488.369 53.0823 488.017 52.8626C487.665 52.6391 487.398 52.3455 487.216 51.9819C487.034 51.6145 486.943 51.2111 486.943 50.7717ZM488.267 50.158V50.7717C488.267 51.0974 488.345 51.3929 488.5 51.658C488.655 51.9232 488.926 52.0558 489.312 52.0558C489.695 52.0558 489.962 51.9232 490.114 51.658C490.265 51.3929 490.341 51.0974 490.341 50.7717V50.158C490.341 49.8323 490.267 49.5368 490.119 49.2717C489.975 49.0065 489.706 48.8739 489.312 48.8739C488.934 48.8739 488.665 49.0065 488.506 49.2717C488.347 49.5368 488.267 49.8323 488.267 50.158ZM481.091 44.1126V43.4989C481.091 43.0596 481.182 42.6561 481.364 42.2887C481.549 41.9213 481.818 41.6277 482.17 41.408C482.527 41.1883 482.956 41.0785 483.46 41.0785C483.975 41.0785 484.407 41.1883 484.756 41.408C485.104 41.6277 485.367 41.9213 485.545 42.2887C485.723 42.6561 485.812 43.0596 485.812 43.4989V44.1126C485.812 44.552 485.722 44.9554 485.54 45.3228C485.362 45.6864 485.097 45.98 484.744 46.2035C484.396 46.4232 483.968 46.533 483.46 46.533C482.945 46.533 482.511 46.4232 482.159 46.2035C481.811 45.98 481.545 45.6864 481.364 45.3228C481.182 44.9554 481.091 44.552 481.091 44.1126ZM482.42 43.4989V44.1126C482.42 44.4383 482.496 44.7338 482.648 44.9989C482.803 45.2641 483.074 45.3967 483.46 45.3967C483.839 45.3967 484.104 45.2641 484.256 44.9989C484.411 44.7338 484.489 44.4383 484.489 44.1126V43.4989C484.489 43.1732 484.415 42.8777 484.267 42.6126C484.119 42.3474 483.85 42.2149 483.46 42.2149C483.081 42.2149 482.813 42.3474 482.653 42.6126C482.498 42.8777 482.42 43.1732 482.42 43.4989ZM481.631 52.9535L489.631 41.3171H490.989L482.989 52.9535H481.631Z" fill="#4D4D4D"/>
<path d="M474.592 88.9606C473.695 88.9568 472.928 88.7201 472.291 88.2504C471.655 87.7807 471.168 87.097 470.831 86.1993C470.494 85.3015 470.325 84.2201 470.325 82.955C470.325 81.6936 470.494 80.6159 470.831 79.722C471.172 78.8281 471.661 78.1462 472.297 77.6765C472.937 77.2068 473.702 76.972 474.592 76.972C475.482 76.972 476.246 77.2087 476.882 77.6822C477.518 78.1519 478.005 78.8337 478.342 79.7277C478.683 80.6178 478.854 81.6936 478.854 82.955C478.854 84.2239 478.685 85.3072 478.348 86.205C478.011 87.0989 477.524 87.7826 476.888 88.2561C476.251 88.7258 475.486 88.9606 474.592 88.9606ZM474.592 87.4436C475.38 87.4436 475.996 87.0591 476.439 86.2902C476.886 85.5212 477.109 84.4095 477.109 82.955C477.109 81.989 477.007 81.1728 476.803 80.5061C476.602 79.8356 476.312 79.3281 475.933 78.9834C475.558 78.6349 475.111 78.4606 474.592 78.4606C473.808 78.4606 473.193 78.847 472.746 79.6197C472.299 80.3925 472.073 81.5042 472.07 82.955C472.07 83.9247 472.17 84.7447 472.371 85.4152C472.575 86.0818 472.865 86.5875 473.24 86.9322C473.615 87.2731 474.066 87.4436 474.592 87.4436ZM486.943 86.5856V85.972C486.943 85.5326 487.034 85.1311 487.216 84.7675C487.402 84.4 487.67 84.1065 488.023 83.8868C488.379 83.6633 488.809 83.5515 489.312 83.5515C489.828 83.5515 490.259 83.6614 490.608 83.8811C490.956 84.1008 491.22 84.3943 491.398 84.7618C491.58 85.1292 491.67 85.5326 491.67 85.972V86.5856C491.67 87.025 491.58 87.4284 491.398 87.7959C491.216 88.1595 490.949 88.4531 490.597 88.6765C490.248 88.8962 489.82 89.0061 489.312 89.0061C488.801 89.0061 488.369 88.8962 488.017 88.6765C487.665 88.4531 487.398 88.1595 487.216 87.7959C487.034 87.4284 486.943 87.025 486.943 86.5856ZM488.267 85.972V86.5856C488.267 86.9114 488.345 87.2068 488.5 87.472C488.655 87.7372 488.926 87.8697 489.312 87.8697C489.695 87.8697 489.962 87.7372 490.114 87.472C490.265 87.2068 490.341 86.9114 490.341 86.5856V85.972C490.341 85.6462 490.267 85.3508 490.119 85.0856C489.975 84.8205 489.706 84.6879 489.312 84.6879C488.934 84.6879 488.665 84.8205 488.506 85.0856C488.347 85.3508 488.267 85.6462 488.267 85.972ZM481.091 79.9265V79.3129C481.091 78.8735 481.182 78.4701 481.364 78.1027C481.549 77.7353 481.818 77.4417 482.17 77.222C482.527 77.0023 482.956 76.8925 483.46 76.8925C483.975 76.8925 484.407 77.0023 484.756 77.222C485.104 77.4417 485.367 77.7353 485.545 78.1027C485.723 78.4701 485.812 78.8735 485.812 79.3129V79.9265C485.812 80.3659 485.722 80.7694 485.54 81.1368C485.362 81.5004 485.097 81.794 484.744 82.0175C484.396 82.2372 483.968 82.347 483.46 82.347C482.945 82.347 482.511 82.2372 482.159 82.0175C481.811 81.794 481.545 81.5004 481.364 81.1368C481.182 80.7694 481.091 80.3659 481.091 79.9265ZM482.42 79.3129V79.9265C482.42 80.2523 482.496 80.5478 482.648 80.8129C482.803 81.0781 483.074 81.2106 483.46 81.2106C483.839 81.2106 484.104 81.0781 484.256 80.8129C484.411 80.5478 484.489 80.2523 484.489 79.9265V79.3129C484.489 78.9872 484.415 78.6917 484.267 78.4265C484.119 78.1614 483.85 78.0288 483.46 78.0288C483.081 78.0288 482.813 78.1614 482.653 78.4265C482.498 78.6917 482.42 78.9872 482.42 79.3129ZM481.631 88.7675L489.631 77.1311H490.989L482.989 88.7675H481.631Z" fill="#4D4D4D"/>
<path d="M474.592 124.775C473.695 124.771 472.928 124.534 472.291 124.064C471.655 123.595 471.168 122.911 470.831 122.013C470.494 121.115 470.325 120.034 470.325 118.769C470.325 117.507 470.494 116.43 470.831 115.536C471.172 114.642 471.661 113.96 472.297 113.49C472.937 113.021 473.702 112.786 474.592 112.786C475.482 112.786 476.246 113.023 476.882 113.496C477.518 113.966 478.005 114.648 478.342 115.542C478.683 116.432 478.854 117.507 478.854 118.769C478.854 120.038 478.685 121.121 478.348 122.019C478.011 122.913 477.524 123.597 476.888 124.07C476.251 124.54 475.486 124.775 474.592 124.775ZM474.592 123.257C475.38 123.257 475.996 122.873 476.439 122.104C476.886 121.335 477.109 120.223 477.109 118.769C477.109 117.803 477.007 116.987 476.803 116.32C476.602 115.65 476.312 115.142 475.933 114.797C475.558 114.449 475.111 114.275 474.592 114.275C473.808 114.275 473.193 114.661 472.746 115.434C472.299 116.206 472.073 117.318 472.07 118.769C472.07 119.739 472.17 120.559 472.371 121.229C472.575 121.896 472.865 122.401 473.24 122.746C473.615 123.087 474.066 123.257 474.592 123.257ZM486.943 122.4V121.786C486.943 121.347 487.034 120.945 487.216 120.581C487.402 120.214 487.67 119.92 488.023 119.701C488.379 119.477 488.809 119.365 489.312 119.365C489.828 119.365 490.259 119.475 490.608 119.695C490.956 119.915 491.22 120.208 491.398 120.576C491.58 120.943 491.67 121.347 491.67 121.786V122.4C491.67 122.839 491.58 123.242 491.398 123.61C491.216 123.973 490.949 124.267 490.597 124.49C490.248 124.71 489.82 124.82 489.312 124.82C488.801 124.82 488.369 124.71 488.017 124.49C487.665 124.267 487.398 123.973 487.216 123.61C487.034 123.242 486.943 122.839 486.943 122.4ZM488.267 121.786V122.4C488.267 122.725 488.345 123.021 488.5 123.286C488.655 123.551 488.926 123.684 489.312 123.684C489.695 123.684 489.962 123.551 490.114 123.286C490.265 123.021 490.341 122.725 490.341 122.4V121.786C490.341 121.46 490.267 121.165 490.119 120.9C489.975 120.634 489.706 120.502 489.312 120.502C488.934 120.502 488.665 120.634 488.506 120.9C488.347 121.165 488.267 121.46 488.267 121.786ZM481.091 115.74V115.127C481.091 114.687 481.182 114.284 481.364 113.917C481.549 113.549 481.818 113.256 482.17 113.036C482.527 112.816 482.956 112.706 483.46 112.706C483.975 112.706 484.407 112.816 484.756 113.036C485.104 113.256 485.367 113.549 485.545 113.917C485.723 114.284 485.812 114.687 485.812 115.127V115.74C485.812 116.18 485.722 116.583 485.54 116.951C485.362 117.314 485.097 117.608 484.744 117.831C484.396 118.051 483.968 118.161 483.46 118.161C482.945 118.161 482.511 118.051 482.159 117.831C481.811 117.608 481.545 117.314 481.364 116.951C481.182 116.583 481.091 116.18 481.091 115.74ZM482.42 115.127V115.74C482.42 116.066 482.496 116.362 482.648 116.627C482.803 116.892 483.074 117.025 483.46 117.025C483.839 117.025 484.104 116.892 484.256 116.627C484.411 116.362 484.489 116.066 484.489 115.74V115.127C484.489 114.801 484.415 114.506 484.267 114.24C484.119 113.975 483.85 113.843 483.46 113.843C483.081 113.843 482.813 113.975 482.653 114.24C482.498 114.506 482.42 114.801 482.42 115.127ZM481.631 124.581L489.631 112.945H490.989L482.989 124.581H481.631Z" fill="#4D4D4D"/>
<path d="M474.592 160.589C473.695 160.585 472.928 160.348 472.291 159.878C471.655 159.409 471.168 158.725 470.831 157.827C470.494 156.929 470.325 155.848 470.325 154.583C470.325 153.322 470.494 152.244 470.831 151.35C471.172 150.456 471.661 149.774 472.297 149.304C472.937 148.835 473.702 148.6 474.592 148.6C475.482 148.6 476.246 148.837 476.882 149.31C477.518 149.78 478.005 150.462 478.342 151.356C478.683 152.246 478.854 153.322 478.854 154.583C478.854 155.852 478.685 156.935 478.348 157.833C478.011 158.727 477.524 159.411 476.888 159.884C476.251 160.354 475.486 160.589 474.592 160.589ZM474.592 159.072C475.38 159.072 475.996 158.687 476.439 157.918C476.886 157.149 477.109 156.037 477.109 154.583C477.109 153.617 477.007 152.801 476.803 152.134C476.602 151.464 476.312 150.956 475.933 150.611C475.558 150.263 475.111 150.089 474.592 150.089C473.808 150.089 473.193 150.475 472.746 151.248C472.299 152.02 472.073 153.132 472.07 154.583C472.07 155.553 472.17 156.373 472.371 157.043C472.575 157.71 472.865 158.215 473.24 158.56C473.615 158.901 474.066 159.072 474.592 159.072ZM486.943 158.214V157.6C486.943 157.161 487.034 156.759 487.216 156.395C487.402 156.028 487.67 155.734 488.023 155.515C488.379 155.291 488.809 155.179 489.312 155.179C489.828 155.179 490.259 155.289 490.608 155.509C490.956 155.729 491.22 156.022 491.398 156.39C491.58 156.757 491.67 157.161 491.67 157.6V158.214C491.67 158.653 491.58 159.056 491.398 159.424C491.216 159.787 490.949 160.081 490.597 160.304C490.248 160.524 489.82 160.634 489.312 160.634C488.801 160.634 488.369 160.524 488.017 160.304C487.665 160.081 487.398 159.787 487.216 159.424C487.034 159.056 486.943 158.653 486.943 158.214ZM488.267 157.6V158.214C488.267 158.539 488.345 158.835 488.5 159.1C488.655 159.365 488.926 159.498 489.312 159.498C489.695 159.498 489.962 159.365 490.114 159.1C490.265 158.835 490.341 158.539 490.341 158.214V157.6C490.341 157.274 490.267 156.979 490.119 156.714C489.975 156.448 489.706 156.316 489.312 156.316C488.934 156.316 488.665 156.448 488.506 156.714C488.347 156.979 488.267 157.274 488.267 157.6ZM481.091 151.554V150.941C481.091 150.501 481.182 150.098 481.364 149.731C481.549 149.363 481.818 149.07 482.17 148.85C482.527 148.63 482.956 148.52 483.46 148.52C483.975 148.52 484.407 148.63 484.756 148.85C485.104 149.07 485.367 149.363 485.545 149.731C485.723 150.098 485.812 150.501 485.812 150.941V151.554C485.812 151.994 485.722 152.397 485.54 152.765C485.362 153.128 485.097 153.422 484.744 153.645C484.396 153.865 483.968 153.975 483.46 153.975C482.945 153.975 482.511 153.865 482.159 153.645C481.811 153.422 481.545 153.128 481.364 152.765C481.182 152.397 481.091 151.994 481.091 151.554ZM482.42 150.941V151.554C482.42 151.88 482.496 152.176 482.648 152.441C482.803 152.706 483.074 152.839 483.46 152.839C483.839 152.839 484.104 152.706 484.256 152.441C484.411 152.176 484.489 151.88 484.489 151.554V150.941C484.489 150.615 484.415 150.32 484.267 150.054C484.119 149.789 483.85 149.657 483.46 149.657C483.081 149.657 482.813 149.789 482.653 150.054C482.498 150.32 482.42 150.615 482.42 150.941ZM481.631 160.395L489.631 148.759H490.989L482.989 160.395H481.631Z" fill="#4D4D4D"/>
<path d="M0.875 50.6808V49.2603L5.90341 41.3171H7.02273V43.408H6.3125L2.71591 49.1012V49.1921H9.60795V50.6808H0.875ZM6.39205 52.9535V50.2489L6.40341 49.6012V41.3171H8.06818V52.9535H6.39205ZM22.3849 46.3569L20.8452 46.6296C20.7808 46.4327 20.6785 46.2452 20.5384 46.0671C20.402 45.8891 20.2164 45.7433 19.9815 45.6296C19.7467 45.516 19.4531 45.4592 19.1009 45.4592C18.6198 45.4592 18.2183 45.5671 17.8963 45.783C17.5743 45.9952 17.4134 46.2698 17.4134 46.6069C17.4134 46.8986 17.5213 47.1334 17.7372 47.3114C17.9531 47.4895 18.3016 47.6353 18.7827 47.7489L20.169 48.0671C20.9721 48.2527 21.5705 48.5387 21.9645 48.9251C22.3584 49.3114 22.5554 49.8133 22.5554 50.4308C22.5554 50.9535 22.4039 51.4194 22.1009 51.8285C21.8016 52.2338 21.383 52.552 20.8452 52.783C20.3111 53.0141 19.6918 53.1296 18.9872 53.1296C18.0099 53.1296 17.2126 52.9213 16.5952 52.5046C15.9777 52.0842 15.599 51.4876 15.4588 50.7149L17.1009 50.4649C17.2031 50.8929 17.4134 51.2167 17.7315 51.4364C18.0497 51.6524 18.4645 51.7603 18.9759 51.7603C19.5327 51.7603 19.9777 51.6448 20.3111 51.4137C20.6444 51.1789 20.8111 50.8929 20.8111 50.5558C20.8111 50.283 20.7088 50.0539 20.5043 49.8683C20.3035 49.6827 19.9948 49.5425 19.5781 49.4478L18.1009 49.1239C17.2865 48.9383 16.6842 48.6429 16.294 48.2376C15.9077 47.8323 15.7145 47.319 15.7145 46.6978C15.7145 46.1827 15.8584 45.7319 16.1463 45.3455C16.4342 44.9592 16.8319 44.658 17.3395 44.4421C17.8471 44.2224 18.4285 44.1126 19.0838 44.1126C20.027 44.1126 20.7694 44.3171 21.3111 44.7262C21.8527 45.1315 22.2107 45.6751 22.3849 46.3569ZM28.4972 44.2262V45.5899H23.7301V44.2262H28.4972ZM25.0085 42.1353H26.7074V50.391C26.7074 50.7205 26.7566 50.9686 26.8551 51.1353C26.9536 51.2982 27.0805 51.4099 27.2358 51.4705C27.3949 51.5274 27.5672 51.5558 27.7528 51.5558C27.8892 51.5558 28.0085 51.5463 28.1108 51.5274C28.2131 51.5084 28.2926 51.4933 28.3494 51.4819L28.6562 52.8853C28.5578 52.9232 28.4176 52.9611 28.2358 52.9989C28.054 53.0406 27.8267 53.0633 27.554 53.0671C27.107 53.0747 26.6903 52.9952 26.304 52.8285C25.9176 52.6618 25.6051 52.4042 25.3665 52.0558C25.1278 51.7073 25.0085 51.2698 25.0085 50.7433V42.1353ZM32.9162 53.1467C32.3632 53.1467 31.8632 53.0444 31.4162 52.8399C30.9692 52.6315 30.6151 52.3304 30.3537 51.9364C30.0961 51.5425 29.9673 51.0596 29.9673 50.4876C29.9673 49.9952 30.062 49.5899 30.2514 49.2717C30.4408 48.9535 30.6965 48.7016 31.0185 48.516C31.3404 48.3304 31.7003 48.1902 32.098 48.0955C32.4957 48.0008 32.901 47.9289 33.3139 47.8796C33.8366 47.819 34.2609 47.7698 34.5866 47.7319C34.9124 47.6902 35.1491 47.6239 35.2969 47.533C35.4446 47.4421 35.5185 47.2944 35.5185 47.0899V47.0501C35.5185 46.5539 35.3783 46.1694 35.098 45.8967C34.8215 45.6239 34.4086 45.4876 33.8594 45.4876C33.2874 45.4876 32.8366 45.6145 32.5071 45.8683C32.1813 46.1183 31.956 46.3967 31.831 46.7035L30.2344 46.3399C30.4238 45.8096 30.7003 45.3815 31.0639 45.0558C31.4313 44.7262 31.8537 44.4876 32.331 44.3399C32.8082 44.1883 33.3101 44.1126 33.8366 44.1126C34.1851 44.1126 34.5545 44.1542 34.9446 44.2376C35.3385 44.3171 35.706 44.4649 36.0469 44.6808C36.3916 44.8967 36.6738 45.2054 36.8935 45.6069C37.1132 46.0046 37.223 46.5217 37.223 47.158V52.9535H35.5639V51.7603H35.4957C35.3859 51.98 35.2211 52.1959 35.0014 52.408C34.7817 52.6202 34.4995 52.7963 34.1548 52.9364C33.8101 53.0766 33.3973 53.1467 32.9162 53.1467ZM33.2855 51.783C33.7552 51.783 34.1567 51.6902 34.4901 51.5046C34.8272 51.319 35.0829 51.0766 35.2571 50.7774C35.4351 50.4743 35.5241 50.1505 35.5241 49.8058V48.6808C35.4635 48.7414 35.3461 48.7982 35.1719 48.8512C35.0014 48.9005 34.8063 48.944 34.5866 48.9819C34.367 49.016 34.1529 49.0482 33.9446 49.0785C33.7363 49.105 33.562 49.1277 33.4219 49.1467C33.0923 49.1883 32.7912 49.2584 32.5185 49.3569C32.2495 49.4554 32.0336 49.5974 31.8707 49.783C31.7116 49.9649 31.6321 50.2073 31.6321 50.5103C31.6321 50.9308 31.7874 51.2489 32.098 51.4649C32.4086 51.677 32.8045 51.783 33.2855 51.783ZM39.4858 52.9535V44.2262H41.1278V45.6126H41.2188C41.3778 45.1429 41.6581 44.7736 42.0597 44.5046C42.465 44.2319 42.9233 44.0955 43.4347 44.0955C43.5407 44.0955 43.6657 44.0993 43.8097 44.1069C43.9574 44.1145 44.0729 44.1239 44.1562 44.1353V45.7603C44.0881 45.7414 43.9669 45.7205 43.7926 45.6978C43.6184 45.6713 43.4441 45.658 43.2699 45.658C42.8684 45.658 42.5104 45.7433 42.196 45.9137C41.8854 46.0804 41.6392 46.3133 41.4574 46.6126C41.2756 46.908 41.1847 47.2452 41.1847 47.6239V52.9535H39.4858ZM52.1662 46.3569L50.6264 46.6296C50.562 46.4327 50.4598 46.2452 50.3196 46.0671C50.1832 45.8891 49.9976 45.7433 49.7628 45.6296C49.5279 45.516 49.2344 45.4592 48.8821 45.4592C48.401 45.4592 47.9995 45.5671 47.6776 45.783C47.3556 45.9952 47.1946 46.2698 47.1946 46.6069C47.1946 46.8986 47.3026 47.1334 47.5185 47.3114C47.7344 47.4895 48.0829 47.6353 48.5639 47.7489L49.9503 48.0671C50.7533 48.2527 51.3518 48.5387 51.7457 48.9251C52.1397 49.3114 52.3366 49.8133 52.3366 50.4308C52.3366 50.9535 52.1851 51.4194 51.8821 51.8285C51.5829 52.2338 51.1643 52.552 50.6264 52.783C50.0923 53.0141 49.473 53.1296 48.7685 53.1296C47.7912 53.1296 46.9938 52.9213 46.3764 52.5046C45.759 52.0842 45.3802 51.4876 45.2401 50.7149L46.8821 50.4649C46.9844 50.8929 47.1946 51.2167 47.5128 51.4364C47.831 51.6524 48.2457 51.7603 48.7571 51.7603C49.3139 51.7603 49.759 51.6448 50.0923 51.4137C50.4257 51.1789 50.5923 50.8929 50.5923 50.5558C50.5923 50.283 50.4901 50.0539 50.2855 49.8683C50.0848 49.6827 49.776 49.5425 49.3594 49.4478L47.8821 49.1239C47.0677 48.9383 46.4654 48.6429 46.0753 48.2376C45.6889 47.8323 45.4957 47.319 45.4957 46.6978C45.4957 46.1827 45.6397 45.7319 45.9276 45.3455C46.2154 44.9592 46.6132 44.658 47.1207 44.4421C47.6283 44.2224 48.2098 44.1126 48.8651 44.1126C49.8082 44.1126 50.5507 44.3171 51.0923 44.7262C51.634 45.1315 51.992 45.6751 52.1662 46.3569Z" fill="#4D4D4D"/>
<path d="M5.17045 88.9265C4.39015 88.9265 3.69318 88.7921 3.07955 88.5231C2.4697 88.2542 1.98674 87.8811 1.63068 87.4038C1.27841 86.9228 1.08902 86.3659 1.0625 85.7334H2.84659C2.86932 86.0781 2.98485 86.3773 3.19318 86.6311C3.4053 86.8811 3.68182 87.0743 4.02273 87.2106C4.36364 87.347 4.74242 87.4152 5.15909 87.4152C5.61742 87.4152 6.02273 87.3356 6.375 87.1765C6.73106 87.0175 7.00947 86.7959 7.21023 86.5118C7.41099 86.2239 7.51136 85.8925 7.51136 85.5175C7.51136 85.1273 7.41099 84.7845 7.21023 84.489C7.01326 84.1898 6.72349 83.955 6.34091 83.7845C5.96212 83.614 5.50379 83.5288 4.96591 83.5288H3.98295V82.097H4.96591C5.39773 82.097 5.77652 82.0193 6.10227 81.864C6.43182 81.7087 6.68939 81.4928 6.875 81.2163C7.06061 80.936 7.15341 80.6084 7.15341 80.2334C7.15341 79.8735 7.07197 79.561 6.90909 79.2959C6.75 79.0269 6.52273 78.8167 6.22727 78.6652C5.93561 78.5137 5.59091 78.4379 5.19318 78.4379C4.81439 78.4379 4.46023 78.508 4.13068 78.6481C3.80492 78.7845 3.53977 78.9815 3.33523 79.239C3.13068 79.4928 3.02083 79.7978 3.00568 80.1538H1.30682C1.32576 79.525 1.51136 78.972 1.86364 78.4947C2.2197 78.0175 2.68939 77.6443 3.27273 77.3754C3.85606 77.1065 4.50379 76.972 5.21591 76.972C5.96212 76.972 6.60606 77.1178 7.14773 77.4095C7.69318 77.6974 8.11364 78.0818 8.40909 78.5629C8.70833 79.044 8.85606 79.5705 8.85227 80.1425C8.85606 80.794 8.67424 81.347 8.30682 81.8015C7.94318 82.2561 7.45833 82.561 6.85227 82.7163V82.8072C7.625 82.9247 8.22349 83.2315 8.64773 83.7277C9.07576 84.2239 9.28788 84.8394 9.28409 85.5743C9.28788 86.2144 9.10985 86.7883 8.75 87.2959C8.39394 87.8034 7.9072 88.2031 7.28977 88.4947C6.67235 88.7826 5.96591 88.9265 5.17045 88.9265ZM22.2287 82.1709L20.6889 82.4436C20.6245 82.2466 20.5223 82.0591 20.3821 81.8811C20.2457 81.7031 20.0601 81.5572 19.8253 81.4436C19.5904 81.33 19.2969 81.2731 18.9446 81.2731C18.4635 81.2731 18.062 81.3811 17.7401 81.597C17.4181 81.8091 17.2571 82.0837 17.2571 82.4209C17.2571 82.7125 17.3651 82.9474 17.581 83.1254C17.7969 83.3034 18.1454 83.4493 18.6264 83.5629L20.0128 83.8811C20.8158 84.0667 21.4143 84.3527 21.8082 84.739C22.2022 85.1254 22.3991 85.6273 22.3991 86.2447C22.3991 86.7675 22.2476 87.2334 21.9446 87.6425C21.6454 88.0478 21.2268 88.3659 20.6889 88.597C20.1548 88.8281 19.5355 88.9436 18.831 88.9436C17.8537 88.9436 17.0563 88.7353 16.4389 88.3186C15.8215 87.8981 15.4427 87.3015 15.3026 86.5288L16.9446 86.2788C17.0469 86.7068 17.2571 87.0307 17.5753 87.2504C17.8935 87.4663 18.3082 87.5743 18.8196 87.5743C19.3764 87.5743 19.8215 87.4587 20.1548 87.2277C20.4882 86.9928 20.6548 86.7068 20.6548 86.3697C20.6548 86.097 20.5526 85.8678 20.348 85.6822C20.1473 85.4966 19.8385 85.3565 19.4219 85.2618L17.9446 84.9379C17.1302 84.7523 16.5279 84.4569 16.1378 84.0515C15.7514 83.6462 15.5582 83.133 15.5582 82.5118C15.5582 81.9966 15.7022 81.5459 15.9901 81.1595C16.2779 80.7731 16.6757 80.472 17.1832 80.2561C17.6908 80.0364 18.2723 79.9265 18.9276 79.9265C19.8707 79.9265 20.6132 80.1311 21.1548 80.5402C21.6965 80.9455 22.0545 81.489 22.2287 82.1709ZM28.3409 80.0402V81.4038H23.5739V80.0402H28.3409ZM24.8523 77.9493H26.5511V86.205C26.5511 86.5345 26.6004 86.7826 26.6989 86.9493C26.7973 87.1122 26.9242 87.2239 27.0795 87.2845C27.2386 87.3413 27.411 87.3697 27.5966 87.3697C27.733 87.3697 27.8523 87.3603 27.9545 87.3413C28.0568 87.3224 28.1364 87.3072 28.1932 87.2959L28.5 88.6993C28.4015 88.7372 28.2614 88.775 28.0795 88.8129C27.8977 88.8546 27.6705 88.8773 27.3977 88.8811C26.9508 88.8887 26.5341 88.8091 26.1477 88.6425C25.7614 88.4758 25.4489 88.2182 25.2102 87.8697C24.9716 87.5212 24.8523 87.0837 24.8523 86.5572V77.9493ZM32.7599 88.9606C32.2069 88.9606 31.7069 88.8584 31.2599 88.6538C30.813 88.4455 30.4588 88.1443 30.1974 87.7504C29.9399 87.3565 29.8111 86.8735 29.8111 86.3015C29.8111 85.8091 29.9058 85.4038 30.0952 85.0856C30.2846 84.7675 30.5402 84.5156 30.8622 84.33C31.1842 84.1444 31.544 84.0042 31.9418 83.9095C32.3395 83.8148 32.7448 83.7428 33.1577 83.6936C33.6804 83.633 34.1046 83.5837 34.4304 83.5459C34.7562 83.5042 34.9929 83.4379 35.1406 83.347C35.2884 83.2561 35.3622 83.1084 35.3622 82.9038V82.864C35.3622 82.3678 35.2221 81.9834 34.9418 81.7106C34.6652 81.4379 34.2524 81.3015 33.7031 81.3015C33.1312 81.3015 32.6804 81.4284 32.3509 81.6822C32.0251 81.9322 31.7997 82.2106 31.6747 82.5175L30.0781 82.1538C30.2675 81.6235 30.544 81.1955 30.9077 80.8697C31.2751 80.5402 31.6974 80.3015 32.1747 80.1538C32.652 80.0023 33.1539 79.9265 33.6804 79.9265C34.0289 79.9265 34.3982 79.9682 34.7884 80.0515C35.1823 80.1311 35.5497 80.2788 35.8906 80.4947C36.2353 80.7106 36.5175 81.0193 36.7372 81.4209C36.9569 81.8186 37.0668 82.3356 37.0668 82.972V88.7675H35.4077V87.5743H35.3395C35.2296 87.794 35.0649 88.0099 34.8452 88.222C34.6255 88.4341 34.3433 88.6103 33.9986 88.7504C33.6539 88.8906 33.241 88.9606 32.7599 88.9606ZM33.1293 87.597C33.599 87.597 34.0005 87.5042 34.3338 87.3186C34.6709 87.133 34.9266 86.8906 35.1009 86.5913C35.2789 86.2883 35.3679 85.9644 35.3679 85.6197V84.4947C35.3073 84.5553 35.1899 84.6122 35.0156 84.6652C34.8452 84.7144 34.6501 84.758 34.4304 84.7959C34.2107 84.83 33.9967 84.8622 33.7884 84.8925C33.58 84.919 33.4058 84.9417 33.2656 84.9606C32.9361 85.0023 32.6349 85.0724 32.3622 85.1709C32.0933 85.2693 31.8774 85.4114 31.7145 85.597C31.5554 85.7788 31.4759 86.0212 31.4759 86.3243C31.4759 86.7447 31.6312 87.0629 31.9418 87.2788C32.2524 87.4909 32.6482 87.597 33.1293 87.597ZM39.3295 88.7675V80.0402H40.9716V81.4265H41.0625C41.2216 80.9568 41.5019 80.5875 41.9034 80.3186C42.3087 80.0459 42.767 79.9095 43.2784 79.9095C43.3845 79.9095 43.5095 79.9133 43.6534 79.9209C43.8011 79.9284 43.9167 79.9379 44 79.9493V81.5743C43.9318 81.5553 43.8106 81.5345 43.6364 81.5118C43.4621 81.4853 43.2879 81.472 43.1136 81.472C42.7121 81.472 42.3542 81.5572 42.0398 81.7277C41.7292 81.8943 41.483 82.1273 41.3011 82.4265C41.1193 82.722 41.0284 83.0591 41.0284 83.4379V88.7675H39.3295ZM52.0099 82.1709L50.4702 82.4436C50.4058 82.2466 50.3035 82.0591 50.1634 81.8811C50.027 81.7031 49.8414 81.5572 49.6065 81.4436C49.3717 81.33 49.0781 81.2731 48.7259 81.2731C48.2448 81.2731 47.8433 81.3811 47.5213 81.597C47.1993 81.8091 47.0384 82.0837 47.0384 82.4209C47.0384 82.7125 47.1463 82.9474 47.3622 83.1254C47.5781 83.3034 47.9266 83.4493 48.4077 83.5629L49.794 83.8811C50.5971 84.0667 51.1955 84.3527 51.5895 84.739C51.9834 85.1254 52.1804 85.6273 52.1804 86.2447C52.1804 86.7675 52.0289 87.2334 51.7259 87.6425C51.4266 88.0478 51.008 88.3659 50.4702 88.597C49.9361 88.8281 49.3168 88.9436 48.6122 88.9436C47.6349 88.9436 46.8376 88.7353 46.2202 88.3186C45.6027 87.8981 45.224 87.3015 45.0838 86.5288L46.7259 86.2788C46.8281 86.7068 47.0384 87.0307 47.3565 87.2504C47.6747 87.4663 48.0895 87.5743 48.6009 87.5743C49.1577 87.5743 49.6027 87.4587 49.9361 87.2277C50.2694 86.9928 50.4361 86.7068 50.4361 86.3697C50.4361 86.097 50.3338 85.8678 50.1293 85.6822C49.9285 85.4966 49.6198 85.3565 49.2031 85.2618L47.7259 84.9379C46.9115 84.7523 46.3092 84.4569 45.919 84.0515C45.5327 83.6462 45.3395 83.133 45.3395 82.5118C45.3395 81.9966 45.4834 81.5459 45.7713 81.1595C46.0592 80.7731 46.4569 80.472 46.9645 80.2561C47.4721 80.0364 48.0535 79.9265 48.7088 79.9265C49.652 79.9265 50.3944 80.1311 50.9361 80.5402C51.4777 80.9455 51.8357 81.489 52.0099 82.1709Z" fill="#4D4D4D"/>
<path d="M1.11932 125.605V124.332L5.05682 120.252C5.47727 119.809 5.82386 119.421 6.09659 119.088C6.37311 118.75 6.57955 118.43 6.71591 118.127C6.85227 117.824 6.92045 117.502 6.92045 117.161C6.92045 116.775 6.82955 116.442 6.64773 116.161C6.46591 115.877 6.2178 115.66 5.90341 115.508C5.58902 115.353 5.23485 115.275 4.84091 115.275C4.42424 115.275 4.06061 115.36 3.75 115.531C3.43939 115.701 3.20076 115.942 3.03409 116.252C2.86742 116.563 2.78409 116.927 2.78409 117.343H1.10795C1.10795 116.635 1.27083 116.016 1.59659 115.485C1.92235 114.955 2.36932 114.544 2.9375 114.252C3.50568 113.957 4.15152 113.809 4.875 113.809C5.60606 113.809 6.25 113.955 6.80682 114.247C7.36742 114.535 7.80492 114.928 8.11932 115.428C8.43371 115.925 8.59091 116.485 8.59091 117.11C8.59091 117.542 8.50947 117.964 8.34659 118.377C8.1875 118.79 7.90909 119.25 7.51136 119.758C7.11364 120.262 6.56061 120.874 5.85227 121.593L3.53977 124.014V124.099H8.77841V125.605H1.11932ZM21.7287 119.008L20.1889 119.281C20.1245 119.084 20.0223 118.896 19.8821 118.718C19.7457 118.54 19.5601 118.394 19.3253 118.281C19.0904 118.167 18.7969 118.11 18.4446 118.11C17.9635 118.11 17.562 118.218 17.2401 118.434C16.9181 118.646 16.7571 118.921 16.7571 119.258C16.7571 119.55 16.8651 119.785 17.081 119.963C17.2969 120.141 17.6454 120.286 18.1264 120.4L19.5128 120.718C20.3158 120.904 20.9143 121.19 21.3082 121.576C21.7022 121.963 21.8991 122.464 21.8991 123.082C21.8991 123.605 21.7476 124.071 21.4446 124.48C21.1454 124.885 20.7268 125.203 20.1889 125.434C19.6548 125.665 19.0355 125.781 18.331 125.781C17.3537 125.781 16.5563 125.572 15.9389 125.156C15.3215 124.735 14.9427 124.139 14.8026 123.366L16.4446 123.116C16.5469 123.544 16.7571 123.868 17.0753 124.088C17.3935 124.303 17.8082 124.411 18.3196 124.411C18.8764 124.411 19.3215 124.296 19.6548 124.065C19.9882 123.83 20.1548 123.544 20.1548 123.207C20.1548 122.934 20.0526 122.705 19.848 122.519C19.6473 122.334 19.3385 122.194 18.9219 122.099L17.4446 121.775C16.6302 121.589 16.0279 121.294 15.6378 120.889C15.2514 120.483 15.0582 119.97 15.0582 119.349C15.0582 118.834 15.2022 118.383 15.4901 117.997C15.7779 117.61 16.1757 117.309 16.6832 117.093C17.1908 116.874 17.7723 116.764 18.4276 116.764C19.3707 116.764 20.1132 116.968 20.6548 117.377C21.1965 117.783 21.5545 118.326 21.7287 119.008ZM27.8409 116.877V118.241H23.0739V116.877H27.8409ZM24.3523 114.786H26.0511V123.042C26.0511 123.372 26.1004 123.62 26.1989 123.786C26.2973 123.949 26.4242 124.061 26.5795 124.122C26.7386 124.178 26.911 124.207 27.0966 124.207C27.233 124.207 27.3523 124.197 27.4545 124.178C27.5568 124.16 27.6364 124.144 27.6932 124.133L28 125.536C27.9015 125.574 27.7614 125.612 27.5795 125.65C27.3977 125.692 27.1705 125.714 26.8977 125.718C26.4508 125.726 26.0341 125.646 25.6477 125.48C25.2614 125.313 24.9489 125.055 24.7102 124.707C24.4716 124.358 24.3523 123.921 24.3523 123.394V114.786ZM32.2599 125.798C31.7069 125.798 31.2069 125.696 30.7599 125.491C30.313 125.283 29.9588 124.982 29.6974 124.588C29.4399 124.194 29.3111 123.711 29.3111 123.139C29.3111 122.646 29.4058 122.241 29.5952 121.923C29.7846 121.605 30.0402 121.353 30.3622 121.167C30.6842 120.982 31.044 120.841 31.4418 120.747C31.8395 120.652 32.2448 120.58 32.6577 120.531C33.1804 120.47 33.6046 120.421 33.9304 120.383C34.2562 120.341 34.4929 120.275 34.6406 120.184C34.7884 120.093 34.8622 119.946 34.8622 119.741V119.701C34.8622 119.205 34.7221 118.821 34.4418 118.548C34.1652 118.275 33.7524 118.139 33.2031 118.139C32.6312 118.139 32.1804 118.266 31.8509 118.519C31.5251 118.769 31.2997 119.048 31.1747 119.355L29.5781 118.991C29.7675 118.461 30.044 118.033 30.4077 117.707C30.7751 117.377 31.1974 117.139 31.6747 116.991C32.152 116.839 32.6539 116.764 33.1804 116.764C33.5289 116.764 33.8982 116.805 34.2884 116.889C34.6823 116.968 35.0497 117.116 35.3906 117.332C35.7353 117.548 36.0175 117.857 36.2372 118.258C36.4569 118.656 36.5668 119.173 36.5668 119.809V125.605H34.9077V124.411H34.8395C34.7296 124.631 34.5649 124.847 34.3452 125.059C34.1255 125.271 33.8433 125.447 33.4986 125.588C33.1539 125.728 32.741 125.798 32.2599 125.798ZM32.6293 124.434C33.099 124.434 33.5005 124.341 33.8338 124.156C34.1709 123.97 34.4266 123.728 34.6009 123.428C34.7789 123.125 34.8679 122.802 34.8679 122.457V121.332C34.8073 121.392 34.6899 121.449 34.5156 121.502C34.3452 121.552 34.1501 121.595 33.9304 121.633C33.7107 121.667 33.4967 121.699 33.2884 121.73C33.08 121.756 32.9058 121.779 32.7656 121.798C32.4361 121.839 32.1349 121.91 31.8622 122.008C31.5933 122.107 31.3774 122.249 31.2145 122.434C31.0554 122.616 30.9759 122.858 30.9759 123.161C30.9759 123.582 31.1312 123.9 31.4418 124.116C31.7524 124.328 32.1482 124.434 32.6293 124.434ZM38.8295 125.605V116.877H40.4716V118.264H40.5625C40.7216 117.794 41.0019 117.425 41.4034 117.156C41.8087 116.883 42.267 116.747 42.7784 116.747C42.8845 116.747 43.0095 116.75 43.1534 116.758C43.3011 116.766 43.4167 116.775 43.5 116.786V118.411C43.4318 118.392 43.3106 118.372 43.1364 118.349C42.9621 118.322 42.7879 118.309 42.6136 118.309C42.2121 118.309 41.8542 118.394 41.5398 118.565C41.2292 118.732 40.983 118.964 40.8011 119.264C40.6193 119.559 40.5284 119.896 40.5284 120.275V125.605H38.8295ZM51.5099 119.008L49.9702 119.281C49.9058 119.084 49.8035 118.896 49.6634 118.718C49.527 118.54 49.3414 118.394 49.1065 118.281C48.8717 118.167 48.5781 118.11 48.2259 118.11C47.7448 118.11 47.3433 118.218 47.0213 118.434C46.6993 118.646 46.5384 118.921 46.5384 119.258C46.5384 119.55 46.6463 119.785 46.8622 119.963C47.0781 120.141 47.4266 120.286 47.9077 120.4L49.294 120.718C50.0971 120.904 50.6955 121.19 51.0895 121.576C51.4834 121.963 51.6804 122.464 51.6804 123.082C51.6804 123.605 51.5289 124.071 51.2259 124.48C50.9266 124.885 50.508 125.203 49.9702 125.434C49.4361 125.665 48.8168 125.781 48.1122 125.781C47.1349 125.781 46.3376 125.572 45.7202 125.156C45.1027 124.735 44.724 124.139 44.5838 123.366L46.2259 123.116C46.3281 123.544 46.5384 123.868 46.8565 124.088C47.1747 124.303 47.5895 124.411 48.1009 124.411C48.6577 124.411 49.1027 124.296 49.4361 124.065C49.7694 123.83 49.9361 123.544 49.9361 123.207C49.9361 122.934 49.8338 122.705 49.6293 122.519C49.4285 122.334 49.1198 122.194 48.7031 122.099L47.2259 121.775C46.4115 121.589 45.8092 121.294 45.419 120.889C45.0327 120.483 44.8395 119.97 44.8395 119.349C44.8395 118.834 44.9834 118.383 45.2713 117.997C45.5592 117.61 45.9569 117.309 46.4645 117.093C46.9721 116.874 47.5535 116.764 48.2088 116.764C49.152 116.764 49.8944 116.968 50.4361 117.377C50.9777 117.783 51.3357 118.326 51.5099 119.008Z" fill="#4D4D4D"/>
<path d="M5.53409 149.782V161.419H3.77273V151.544H3.70455L0.920455 153.362V151.68L3.82386 149.782H5.53409ZM19.4787 154.822L17.9389 155.095C17.8745 154.898 17.7723 154.71 17.6321 154.532C17.4957 154.354 17.3101 154.208 17.0753 154.095C16.8404 153.981 16.5469 153.924 16.1946 153.924C15.7135 153.924 15.312 154.032 14.9901 154.248C14.6681 154.46 14.5071 154.735 14.5071 155.072C14.5071 155.364 14.6151 155.599 14.831 155.777C15.0469 155.955 15.3954 156.1 15.8764 156.214L17.2628 156.532C18.0658 156.718 18.6643 157.004 19.0582 157.39C19.4522 157.777 19.6491 158.278 19.6491 158.896C19.6491 159.419 19.4976 159.884 19.1946 160.294C18.8954 160.699 18.4768 161.017 17.9389 161.248C17.4048 161.479 16.7855 161.595 16.081 161.595C15.1037 161.595 14.3063 161.386 13.6889 160.97C13.0715 160.549 12.6927 159.953 12.5526 159.18L14.1946 158.93C14.2969 159.358 14.5071 159.682 14.8253 159.902C15.1435 160.117 15.5582 160.225 16.0696 160.225C16.6264 160.225 17.0715 160.11 17.4048 159.879C17.7382 159.644 17.9048 159.358 17.9048 159.021C17.9048 158.748 17.8026 158.519 17.598 158.333C17.3973 158.148 17.0885 158.008 16.6719 157.913L15.1946 157.589C14.3802 157.403 13.7779 157.108 13.3878 156.703C13.0014 156.297 12.8082 155.784 12.8082 155.163C12.8082 154.648 12.9522 154.197 13.2401 153.811C13.5279 153.424 13.9257 153.123 14.4332 152.907C14.9408 152.688 15.5223 152.578 16.1776 152.578C17.1207 152.578 17.8632 152.782 18.4048 153.191C18.9465 153.597 19.3045 154.14 19.4787 154.822ZM25.5909 152.691V154.055H20.8239V152.691H25.5909ZM22.1023 150.6H23.8011V158.856C23.8011 159.186 23.8504 159.434 23.9489 159.6C24.0473 159.763 24.1742 159.875 24.3295 159.936C24.4886 159.992 24.661 160.021 24.8466 160.021C24.983 160.021 25.1023 160.011 25.2045 159.992C25.3068 159.974 25.3864 159.958 25.4432 159.947L25.75 161.35C25.6515 161.388 25.5114 161.426 25.3295 161.464C25.1477 161.506 24.9205 161.528 24.6477 161.532C24.2008 161.54 23.7841 161.46 23.3977 161.294C23.0114 161.127 22.6989 160.869 22.4602 160.521C22.2216 160.172 22.1023 159.735 22.1023 159.208V150.6ZM30.0099 161.612C29.4569 161.612 28.9569 161.509 28.5099 161.305C28.063 161.097 27.7088 160.795 27.4474 160.402C27.1899 160.008 27.0611 159.525 27.0611 158.953C27.0611 158.46 27.1558 158.055 27.3452 157.737C27.5346 157.419 27.7902 157.167 28.1122 156.981C28.4342 156.795 28.794 156.655 29.1918 156.561C29.5895 156.466 29.9948 156.394 30.4077 156.345C30.9304 156.284 31.3546 156.235 31.6804 156.197C32.0062 156.155 32.2429 156.089 32.3906 155.998C32.5384 155.907 32.6122 155.759 32.6122 155.555V155.515C32.6122 155.019 32.4721 154.634 32.1918 154.362C31.9152 154.089 31.5024 153.953 30.9531 153.953C30.3812 153.953 29.9304 154.08 29.6009 154.333C29.2751 154.583 29.0497 154.862 28.9247 155.169L27.3281 154.805C27.5175 154.275 27.794 153.847 28.1577 153.521C28.5251 153.191 28.9474 152.953 29.4247 152.805C29.902 152.653 30.4039 152.578 30.9304 152.578C31.2789 152.578 31.6482 152.619 32.0384 152.703C32.4323 152.782 32.7997 152.93 33.1406 153.146C33.4853 153.362 33.7675 153.67 33.9872 154.072C34.2069 154.47 34.3168 154.987 34.3168 155.623V161.419H32.6577V160.225H32.5895C32.4796 160.445 32.3149 160.661 32.0952 160.873C31.8755 161.085 31.5933 161.261 31.2486 161.402C30.9039 161.542 30.491 161.612 30.0099 161.612ZM30.3793 160.248C30.849 160.248 31.2505 160.155 31.5838 159.97C31.9209 159.784 32.1766 159.542 32.3509 159.242C32.5289 158.939 32.6179 158.616 32.6179 158.271V157.146C32.5573 157.206 32.4399 157.263 32.2656 157.316C32.0952 157.366 31.9001 157.409 31.6804 157.447C31.4607 157.481 31.2467 157.513 31.0384 157.544C30.83 157.57 30.6558 157.593 30.5156 157.612C30.1861 157.653 29.8849 157.724 29.6122 157.822C29.3433 157.92 29.1274 158.063 28.9645 158.248C28.8054 158.43 28.7259 158.672 28.7259 158.975C28.7259 159.396 28.8812 159.714 29.1918 159.93C29.5024 160.142 29.8982 160.248 30.3793 160.248ZM36.5795 161.419V152.691H38.2216V154.078H38.3125C38.4716 153.608 38.7519 153.239 39.1534 152.97C39.5587 152.697 40.017 152.561 40.5284 152.561C40.6345 152.561 40.7595 152.564 40.9034 152.572C41.0511 152.58 41.1667 152.589 41.25 152.6V154.225C41.1818 154.206 41.0606 154.186 40.8864 154.163C40.7121 154.136 40.5379 154.123 40.3636 154.123C39.9621 154.123 39.6042 154.208 39.2898 154.379C38.9792 154.545 38.733 154.778 38.5511 155.078C38.3693 155.373 38.2784 155.71 38.2784 156.089V161.419H36.5795Z" fill="#4D4D4D"/>
<line x1="89" y1="12.5116" x2="416" y2="12.5116" stroke="#FF8C38" stroke-width="8" stroke-linecap="round"/>
<line x1="89" y1="49.3488" x2="416" y2="49.3488" stroke="#B9B9B9" stroke-width="8" stroke-linecap="round"/>
<line x1="89" y1="86.186" x2="416" y2="86.1861" stroke="#B9B9B9" stroke-width="8" stroke-linecap="round"/>
<line x1="89" y1="123.023" x2="416" y2="123.023" stroke="#B9B9B9" stroke-width="8" stroke-linecap="round"/>
<line x1="89" y1="159.86" x2="416" y2="159.861" stroke="#B9B9B9" stroke-width="8" stroke-linecap="round"/>
</svg>
